<svg id="Capa_1" data-name="Capa 1" xmlns="http://www.w3.org/2000/svg" viewBox="0 0 31.65 33"><defs><style>.cls-1{fill:#ffc600;}.cls-2{fill:#fff;}</style></defs><title>logoSolo2</title><polygon class="cls-1" points="24.91 17.54 6 17.54 7.1 28.74 23.82 28.74 24.91 17.54"/><path class="cls-2" d="M26.86,5.76l7.26-3.11-.42-1L26,4.95l-.61,1.47H12A4.8,4.8,0,1,0,7.2,11.75L9.45,34.67h17L29.17,6.42H26.59Zm-18,11.85h0a2.66,2.66,0,0,1,5.33,0h0v0l.51,12.24H10Zm6.92,12.26-.51-12.26a2.66,2.66,0,0,1,5.33,0l0,.6L15.83,29.67l.49.2Zm4.66-8.55-.36,8.55H16.9Zm1.19-2.87,1.27-3.08A2.66,2.66,0,0,1,27,17.61h0L25.8,29.87H21.14Zm-.5-2.75a3.72,3.72,0,0,0-6.4,0,3.72,3.72,0,0,0-6.11-.42l-.36-3.64A4.8,4.8,0,0,0,12,7.49H25l-3,7.19A3.76,3.76,0,0,0,21.12,15.7ZM7.85,7.49H11a3.74,3.74,0,0,1-2.8,3.09ZM3.53,7A3.73,3.73,0,0,1,11,6.42H7.53L6.09,4.5l-.85.64L6.52,6.85,4.81,8.13,5.45,9l1.37-1,.27,2.73A3.73,3.73,0,0,1,3.53,7ZM10.41,33.6l-.26-2.66H25.7l-.26,2.66ZM28,7.49l-.76,7.8A3.7,3.7,0,0,0,23.46,14l2.68-6.5Z" transform="translate(-2.47 -1.67)"/></svg>