<svg id="Capa_1" data-name="Capa 1" xmlns="http://www.w3.org/2000/svg" viewBox="0 0 18.53 19.32"><defs><style>.cls-1{fill:#ffc600;}.cls-2{fill:#fff;}</style></defs><title>logoSolo3</title><polygon class="cls-1" points="14.59 10.27 3.51 10.27 4.15 16.82 13.94 16.82 14.59 10.27"/><path class="cls-2" d="M16.75,4.4,21,2.57,20.75,2,16.27,3.92l-.36.86H8.07A2.81,2.81,0,1,0,5.24,7.9L6.55,21.32h9.93L18.1,4.78H16.59ZM6.2,11.34h0a1.56,1.56,0,1,1,3.12,0h0l.3,7.16H6.91Zm4.05,7.18L10,11.34a1.56,1.56,0,0,1,3.12,0v.35l-2.77,6.71.29.12Zm2.73-5-.21,5H10.92Zm.69-1.68.74-1.8a1.56,1.56,0,0,1,2.4,1.31h0l-.7,7.18H13.4Zm-.29-1.61a2.18,2.18,0,0,0-3.74,0A2.18,2.18,0,0,0,6.07,10L5.86,7.84A2.81,2.81,0,0,0,8.07,5.41h7.59L13.92,9.62A2.2,2.2,0,0,0,13.39,10.22ZM5.62,5.41H7.44A2.19,2.19,0,0,1,5.8,7.21ZM3.09,5.09a2.18,2.18,0,0,1,4.34-.31h-2L4.59,3.66,4.09,4l.75,1-1,.75.37.5.8-.6.16,1.6A2.19,2.19,0,0,1,3.09,5.09Zm4,15.6L7,19.14h9.1l-.15,1.56ZM17.41,5.41,17,10a2.17,2.17,0,0,0-2.21-.76l1.57-3.8Z" transform="translate(-2.47 -2)"/></svg>