<svg id="Capa_1" data-name="Capa 1" xmlns="http://www.w3.org/2000/svg" viewBox="0 0 56.59 59"><defs><style>.cls-1{fill:#ffc600;}.cls-2{fill:#333;}</style></defs><title>logoSolo</title><polygon class="cls-1" points="44.54 31.37 10.72 31.37 12.69 51.38 42.58 51.38 44.54 31.37"/><path class="cls-2" d="M45.08,8.32l13-5.56L57.31,1,43.61,6.87,42.53,9.5h-24A8.57,8.57,0,1,0,9.93,19l4,41H44.26l5-50.5H44.59ZM12.87,29.51h0a4.76,4.76,0,0,1,9.53,0h0v0l.91,21.88H15ZM25.25,51.42l-.91-21.92a4.76,4.76,0,0,1,9.53,0l0,1.08L25.36,51.06l.88.36Zm8.34-15.29L33,51.42H27.27ZM35.71,31,38,25.5a4.75,4.75,0,0,1,7.32,4h0L43.18,51.42H34.86Zm-.89-4.91a6.65,6.65,0,0,0-11.43,0,6.65,6.65,0,0,0-10.92-.74l-.64-6.51a8.59,8.59,0,0,0,6.74-7.43H41.74L36.43,24.26A6.73,6.73,0,0,0,34.82,26.09ZM11.09,11.4h5.54a6.68,6.68,0,0,1-5,5.52Zm-7.72-1a6.67,6.67,0,0,1,13.26-1H10.52L7.95,6.07,6.42,7.21l2.29,3-3,2.29L6.8,14.07l2.46-1.84.48,4.88A6.67,6.67,0,0,1,3.37,10.45Zm12.3,47.64-.47-4.76H43l-.47,4.76ZM47.11,11.4,45.74,25.35A6.61,6.61,0,0,0,39,23L43.8,11.4Z" transform="translate(-1.47 -1)"/></svg>