<svg id="Capa_1" data-name="Capa 1" xmlns="http://www.w3.org/2000/svg" viewBox="0 0 515.53 177.49"><defs><style>.cls-1{fill:#ffc600;}.cls-2,.cls-3{fill:#333;}.cls-3{font-size:78px;font-family:Lato-Bold, Lato;font-weight:700;}.cls-4{letter-spacing:-0.03em;}.cls-5{letter-spacing:-0.03em;}</style></defs><title>logoPrincipal</title><polygon class="cls-1" points="123.06 86.66 29.63 86.66 35.05 141.94 117.64 141.94 123.06 86.66"/><path class="cls-2" d="M148.52,23.21,184.39,7.84,182.32,3,144.47,19.22l-3,7.26H75.26A23.69,23.69,0,1,0,51.4,52.79L62.5,166h83.75L159.93,26.48H147.17Zm-89,58.55h.09a13.16,13.16,0,0,1,26.32,0h0v.11l2.52,60.44h-23Zm34.2,60.55L91.21,81.76a13.16,13.16,0,0,1,26.32,0l-.12,3L94,141.3l2.43,1Zm23-42.24L115,142.31H99.33Zm5.86-14.19,6.27-15.19a13.12,13.12,0,0,1,20.22,11.07h.09l-5.94,60.55h-23Zm-2.46-13.56a18.38,18.38,0,0,0-31.59,0,18.38,18.38,0,0,0-30.17-2.05l-1.76-18A23.73,23.73,0,0,0,75.26,31.74h64L124.63,67.27A18.59,18.59,0,0,0,120.17,72.32ZM54.63,31.74H69.95A18.45,18.45,0,0,1,56.13,47ZM33.3,29.11a18.42,18.42,0,0,1,36.64-2.63H53L45.94,17l-4.21,3.16L48,28.58,39.62,34.9l3.16,4.21L49.57,34,50.89,47.5A18.44,18.44,0,0,1,33.3,29.11Zm34,131.62L66,147.57h76.78l-1.29,13.16Zm86.85-129-3.78,38.52a18.27,18.27,0,0,0-18.61-6.43L145,31.74Z" transform="translate(-28.03 -3)"/><text class="cls-3" transform="translate(145.5 81.73)">H<tspan class="cls-4" x="58.97" y="0">U</tspan><tspan class="cls-5" x="113.72" y="0">A</tspan><tspan x="167.12" y="0">CHO</tspan></text><text class="cls-3" transform="translate(145.35 163.41)">DELIVERY</text></svg>